<mxfile host="app.diagrams.net" modified="2020-12-29T10:27:05.806Z" agent="5.0 (Macintosh; Intel Mac OS X 10_15_6) AppleWebKit/537.36 (KHTML, like Gecko) Chrome/87.0.4280.88 Safari/537.36" etag="QURrdWFTf3p6TD6nwMoK" version="14.1.3" type="github">
  <diagram id="C5RBs43oDa-KdzZeNtuy" name="Page-1">
    <mxGraphModel dx="2046" dy="690" grid="1" gridSize="10" guides="1" tooltips="1" connect="1" arrows="1" fold="1" page="1" pageScale="1" pageWidth="827" pageHeight="1169" math="0" shadow="0">
      <root>
        <mxCell id="WIyWlLk6GJQsqaUBKTNV-0" />
        <mxCell id="WIyWlLk6GJQsqaUBKTNV-1" parent="WIyWlLk6GJQsqaUBKTNV-0" />
        <mxCell id="ixXc_i9thn0VeAFdpDdE-10" value="" style="edgeStyle=orthogonalEdgeStyle;rounded=0;orthogonalLoop=1;jettySize=auto;html=1;" edge="1" parent="WIyWlLk6GJQsqaUBKTNV-1" source="WIyWlLk6GJQsqaUBKTNV-3" target="ixXc_i9thn0VeAFdpDdE-9">
          <mxGeometry relative="1" as="geometry" />
        </mxCell>
        <mxCell id="ixXc_i9thn0VeAFdpDdE-12" value="" style="edgeStyle=orthogonalEdgeStyle;rounded=0;orthogonalLoop=1;jettySize=auto;html=1;" edge="1" parent="WIyWlLk6GJQsqaUBKTNV-1" source="WIyWlLk6GJQsqaUBKTNV-3" target="ixXc_i9thn0VeAFdpDdE-11">
          <mxGeometry relative="1" as="geometry" />
        </mxCell>
        <mxCell id="ixXc_i9thn0VeAFdpDdE-14" value="" style="edgeStyle=orthogonalEdgeStyle;rounded=0;orthogonalLoop=1;jettySize=auto;html=1;" edge="1" parent="WIyWlLk6GJQsqaUBKTNV-1" source="WIyWlLk6GJQsqaUBKTNV-3" target="ixXc_i9thn0VeAFdpDdE-13">
          <mxGeometry relative="1" as="geometry" />
        </mxCell>
        <mxCell id="WIyWlLk6GJQsqaUBKTNV-3" value="基础运维&lt;br&gt;Poinpoint&lt;br&gt;JVM&lt;br&gt;各群告警&lt;br&gt;客服及内部反馈" style="rounded=1;whiteSpace=wrap;html=1;fontSize=12;glass=0;strokeWidth=1;shadow=0;strokeColor=#b85450;fillColor=#FF9999;" parent="WIyWlLk6GJQsqaUBKTNV-1" vertex="1">
          <mxGeometry x="160" y="30" width="140" height="80" as="geometry" />
        </mxCell>
        <mxCell id="ixXc_i9thn0VeAFdpDdE-34" style="edgeStyle=orthogonalEdgeStyle;rounded=0;orthogonalLoop=1;jettySize=auto;html=1;exitX=0.5;exitY=1;exitDx=0;exitDy=0;entryX=0;entryY=0.5;entryDx=0;entryDy=0;" edge="1" parent="WIyWlLk6GJQsqaUBKTNV-1" source="ixXc_i9thn0VeAFdpDdE-9" target="ixXc_i9thn0VeAFdpDdE-15">
          <mxGeometry relative="1" as="geometry" />
        </mxCell>
        <mxCell id="ixXc_i9thn0VeAFdpDdE-35" style="edgeStyle=orthogonalEdgeStyle;rounded=0;orthogonalLoop=1;jettySize=auto;html=1;exitX=0.5;exitY=1;exitDx=0;exitDy=0;entryX=0.5;entryY=0;entryDx=0;entryDy=0;" edge="1" parent="WIyWlLk6GJQsqaUBKTNV-1" source="ixXc_i9thn0VeAFdpDdE-9" target="ixXc_i9thn0VeAFdpDdE-31">
          <mxGeometry relative="1" as="geometry">
            <mxPoint y="360" as="targetPoint" />
          </mxGeometry>
        </mxCell>
        <mxCell id="ixXc_i9thn0VeAFdpDdE-9" value="&lt;font style=&quot;font-size: 16px&quot;&gt;运维值班&lt;/font&gt;&lt;br&gt;基础故障" style="whiteSpace=wrap;html=1;rounded=1;shadow=0;strokeColor=#d6b656;strokeWidth=1;fillColor=#fff2cc;glass=0;" vertex="1" parent="WIyWlLk6GJQsqaUBKTNV-1">
          <mxGeometry x="-60" y="175" width="120" height="65" as="geometry" />
        </mxCell>
        <mxCell id="ixXc_i9thn0VeAFdpDdE-17" style="edgeStyle=orthogonalEdgeStyle;rounded=0;orthogonalLoop=1;jettySize=auto;html=1;" edge="1" parent="WIyWlLk6GJQsqaUBKTNV-1" source="ixXc_i9thn0VeAFdpDdE-11" target="ixXc_i9thn0VeAFdpDdE-15">
          <mxGeometry relative="1" as="geometry" />
        </mxCell>
        <mxCell id="ixXc_i9thn0VeAFdpDdE-11" value="&lt;font style=&quot;font-size: 16px&quot;&gt;基础架构值班&lt;br&gt;&lt;/font&gt;平台架构解决" style="whiteSpace=wrap;html=1;rounded=1;shadow=0;strokeColor=#d6b656;strokeWidth=1;fillColor=#fff2cc;glass=0;" vertex="1" parent="WIyWlLk6GJQsqaUBKTNV-1">
          <mxGeometry x="170" y="175" width="120" height="60" as="geometry" />
        </mxCell>
        <mxCell id="ixXc_i9thn0VeAFdpDdE-20" style="edgeStyle=orthogonalEdgeStyle;rounded=0;orthogonalLoop=1;jettySize=auto;html=1;exitX=0.5;exitY=1;exitDx=0;exitDy=0;entryX=1;entryY=0.5;entryDx=0;entryDy=0;" edge="1" parent="WIyWlLk6GJQsqaUBKTNV-1" source="ixXc_i9thn0VeAFdpDdE-13" target="ixXc_i9thn0VeAFdpDdE-15">
          <mxGeometry relative="1" as="geometry" />
        </mxCell>
        <mxCell id="ixXc_i9thn0VeAFdpDdE-24" value="" style="edgeStyle=orthogonalEdgeStyle;rounded=0;orthogonalLoop=1;jettySize=auto;html=1;" edge="1" parent="WIyWlLk6GJQsqaUBKTNV-1" source="ixXc_i9thn0VeAFdpDdE-13" target="ixXc_i9thn0VeAFdpDdE-23">
          <mxGeometry relative="1" as="geometry">
            <Array as="points">
              <mxPoint x="460" y="220" />
              <mxPoint x="540" y="220" />
            </Array>
          </mxGeometry>
        </mxCell>
        <mxCell id="ixXc_i9thn0VeAFdpDdE-25" value="Bug修复" style="edgeLabel;html=1;align=center;verticalAlign=middle;resizable=0;points=[];" vertex="1" connectable="0" parent="ixXc_i9thn0VeAFdpDdE-24">
          <mxGeometry x="0.2602" y="2" relative="1" as="geometry">
            <mxPoint as="offset" />
          </mxGeometry>
        </mxCell>
        <mxCell id="ixXc_i9thn0VeAFdpDdE-13" value="&lt;font style=&quot;font-size: 15px&quot;&gt;业务研发值班&lt;br&gt;&lt;/font&gt;业务研发协助解决" style="whiteSpace=wrap;html=1;rounded=1;shadow=0;strokeColor=#d6b656;strokeWidth=1;fillColor=#fff2cc;glass=0;" vertex="1" parent="WIyWlLk6GJQsqaUBKTNV-1">
          <mxGeometry x="400" y="175" width="120" height="60" as="geometry" />
        </mxCell>
        <mxCell id="ixXc_i9thn0VeAFdpDdE-15" value="&lt;font style=&quot;font-size: 14px&quot;&gt;A队&lt;/font&gt;&lt;br&gt;各方同步状态及结果" style="rounded=1;whiteSpace=wrap;html=1;fillColor=#e1d5e7;strokeColor=#9673a6;" vertex="1" parent="WIyWlLk6GJQsqaUBKTNV-1">
          <mxGeometry x="170" y="290" width="120" height="60" as="geometry" />
        </mxCell>
        <mxCell id="ixXc_i9thn0VeAFdpDdE-30" style="edgeStyle=orthogonalEdgeStyle;rounded=0;orthogonalLoop=1;jettySize=auto;html=1;exitX=0.5;exitY=1;exitDx=0;exitDy=0;entryX=0.5;entryY=1;entryDx=0;entryDy=0;" edge="1" parent="WIyWlLk6GJQsqaUBKTNV-1" source="ixXc_i9thn0VeAFdpDdE-23" target="ixXc_i9thn0VeAFdpDdE-15">
          <mxGeometry relative="1" as="geometry">
            <Array as="points">
              <mxPoint x="650" y="390" />
              <mxPoint x="230" y="390" />
            </Array>
          </mxGeometry>
        </mxCell>
        <mxCell id="ixXc_i9thn0VeAFdpDdE-23" value="确定解决方案&lt;br&gt;提出上线申请&lt;br&gt;测试验证&lt;br&gt;变更上线" style="whiteSpace=wrap;html=1;rounded=1;shadow=0;strokeColor=#6c8ebf;strokeWidth=1;fillColor=#dae8fc;glass=0;" vertex="1" parent="WIyWlLk6GJQsqaUBKTNV-1">
          <mxGeometry x="590" y="270" width="120" height="90" as="geometry" />
        </mxCell>
        <mxCell id="ixXc_i9thn0VeAFdpDdE-31" value="&lt;font style=&quot;font-size: 14px&quot;&gt;解决&lt;/font&gt;" style="shape=document;whiteSpace=wrap;html=1;boundedLbl=1;rounded=1;shadow=0;strokeColor=#82b366;strokeWidth=1;fillColor=#d5e8d4;glass=0;" vertex="1" parent="WIyWlLk6GJQsqaUBKTNV-1">
          <mxGeometry x="-60" y="370" width="120" height="80" as="geometry" />
        </mxCell>
      </root>
    </mxGraphModel>
  </diagram>
</mxfile>
